<svg version="1.1" id="Layer_1" xmlns="http://www.w3.org/2000/svg" xmlns:xlink="http://www.w3.org/1999/xlink" x="0px" y="0px"
	 width="100%" viewBox="0 0 1536 1024" enable-background="new 0 0 1536 1024" xml:space="preserve">
<path fill="#000000" opacity="1.000000" stroke="none" 
	d="
M948.000000,1025.000000 
	C632.000000,1025.000000 316.500000,1025.000000 1.000000,1025.000000 
	C1.000000,683.666687 1.000000,342.333344 1.000000,1.000000 
	C513.000000,1.000000 1025.000000,1.000000 1537.000000,1.000000 
	C1537.000000,342.333344 1537.000000,683.666687 1537.000000,1025.000000 
	C1340.833374,1025.000000 1144.666626,1025.000000 948.000000,1025.000000 
M1091.543091,522.695251 
	C1091.990967,521.144836 1092.825806,519.595276 1092.829346,518.043884 
	C1092.902222,485.971619 1092.884888,453.899139 1092.864746,421.826721 
	C1092.863892,420.394348 1092.668823,418.962067 1092.527588,417.028595 
	C1087.354248,417.028595 1082.566284,416.990875 1077.782593,417.112579 
	C1077.460083,417.120789 1077.168213,418.332092 1076.838257,419.922913 
	C1076.815063,434.247681 1076.791870,448.572418 1076.122192,463.250916 
	C1076.340698,467.200531 1076.559204,471.150116 1076.840942,476.022461 
	C1076.811646,488.312256 1076.782349,500.602051 1076.224609,513.072510 
	C1076.398438,514.085388 1076.572144,515.098267 1076.812012,516.903687 
	C1076.765137,518.224976 1076.718140,519.546265 1076.192993,520.910706 
	C1076.097046,521.419861 1076.000977,521.929016 1075.905029,522.438293 
	C1076.267944,522.307495 1076.630981,522.176697 1077.918457,522.162415 
	C1082.288330,522.183350 1086.658081,522.204346 1091.543091,522.695251 
M958.925232,430.878845 
	C959.081055,431.048859 959.236816,431.218842 959.354126,432.087189 
	C943.372986,456.908203 927.513672,481.809235 911.308594,506.483185 
	C908.043152,511.455261 907.070435,516.324585 908.089172,522.069458 
	C933.100281,522.069458 958.020081,522.069458 982.915771,522.069458 
	C982.915771,518.241943 982.915771,514.650818 982.915771,510.645752 
	C963.767334,510.645752 944.886536,510.645752 925.528687,510.645752 
	C926.118774,509.252075 926.366272,508.316620 926.864258,507.542297 
	C943.460449,481.736298 959.962463,455.868042 976.822266,430.235168 
	C979.398682,426.318024 979.534973,422.749542 979.102112,418.726227 
	C955.895813,418.726227 932.997620,418.726227 910.173828,418.726227 
	C910.173828,422.657532 910.173828,426.205353 910.173828,429.988983 
	C912.383728,429.988983 914.202393,429.976227 916.020752,429.990997 
	C930.175537,430.106049 944.330383,430.226410 958.925232,430.878845 
M281.817383,388.828247 
	C281.817383,433.107727 281.817383,477.387207 281.817383,522.668396 
	C304.553162,522.129333 327.251617,522.870483 349.656219,520.648499 
	C367.066803,518.921692 381.557495,509.237549 390.877350,493.903595 
	C405.067719,470.556274 406.923798,445.681641 397.447174,420.186310 
	C388.602814,396.392029 371.985840,381.978821 345.890564,380.825287 
	C329.096710,380.082916 312.260315,380.295593 295.442688,380.105377 
	C290.993835,380.055023 286.543945,380.097778 281.815460,380.097778 
	C281.815460,382.989227 281.815460,385.449768 281.817383,388.828247 
M501.944305,428.623444 
	C494.724060,417.308563 483.965424,412.549713 471.023224,413.010437 
	C458.582855,413.453278 446.840088,416.238892 438.903625,428.748901 
	C438.903625,410.294861 438.903625,393.049072 438.903625,376.047760 
	C429.022827,376.047760 419.449890,376.047760 409.735657,376.047760 
	C409.735657,424.848480 409.735657,473.277832 409.735657,521.945496 
	C419.435730,521.945496 429.180237,521.945496 439.220856,521.945496 
	C439.220856,518.937317 439.222534,516.148682 439.220612,513.360046 
	C439.208130,495.200653 438.975403,477.037506 439.289307,458.883759 
	C439.415802,451.570007 440.699677,444.322845 447.678040,439.692871 
	C454.210571,435.358673 461.004303,435.075806 468.057098,437.952850 
	C475.502502,440.990112 476.683868,447.630768 476.792511,454.446259 
	C477.018158,468.604248 476.889191,482.767914 476.900024,496.929260 
	C476.906372,505.199432 476.901154,513.469604 476.901154,521.879272 
	C487.414307,521.879272 497.484894,521.879272 507.637390,521.879272 
	C507.764587,521.155457 507.918213,520.692261 507.916992,520.229370 
	C507.855988,497.074127 508.200684,473.905518 507.460907,450.771606 
	C507.230469,443.564331 504.062531,436.451019 501.944305,428.623444 
M641.742249,499.836151 
	C643.958069,505.548187 646.199524,511.250549 648.372681,516.978760 
	C648.952942,518.508118 650.034729,520.301758 649.680420,521.659546 
	C646.658997,533.239929 637.637939,540.369873 626.427124,535.098083 
	C624.126099,534.016052 621.879211,532.818848 619.881348,531.812683 
	C616.202820,540.529724 612.750000,548.711670 609.088196,557.389038 
	C623.882385,565.693359 639.331543,567.262634 655.160950,560.553101 
	C667.774780,555.206482 673.676331,544.065308 678.068970,531.883057 
	C688.391479,503.255127 698.779297,474.650787 709.133423,446.034302 
	C712.827393,435.825165 716.500366,425.608459 720.345947,414.943115 
	C709.390869,414.943115 699.070435,414.819916 688.760986,415.100739 
	C687.488098,415.135406 685.577759,417.110138 685.138550,418.545593 
	C679.905457,435.649841 674.911438,452.827118 669.814148,469.973175 
	C668.726685,473.630859 667.476257,477.240082 665.849609,482.266083 
	C658.165771,458.818695 650.982849,436.899841 643.873596,415.205811 
	C631.985657,415.205811 620.586243,415.205811 608.961792,415.205811 
	C619.871704,443.415222 630.645874,471.273621 641.742249,499.836151 
M879.500488,516.129395 
	C879.402771,517.004272 879.305054,517.879150 879.207336,518.754028 
	C878.879089,518.820862 878.550842,518.887695 878.222595,518.954468 
	C859.679565,472.161896 841.136475,425.369324 822.654846,378.731567 
	C817.824829,378.731567 813.317261,378.900604 808.830017,378.671783 
	C805.868774,378.520752 804.531982,379.515717 803.466125,382.388824 
	C797.541199,398.360718 791.374512,414.243652 785.220825,430.130005 
	C773.417969,460.600250 761.568237,491.052368 749.581848,521.914062 
	C755.517883,521.914062 761.060059,521.914062 766.285645,521.914062 
	C771.437073,507.882324 776.491516,494.114746 781.633545,480.108551 
	C801.770874,480.108551 821.748535,480.205383 841.723511,480.018555 
	C845.288086,479.985229 846.876343,481.013458 848.135620,484.414886 
	C852.819763,497.067566 857.912415,509.568970 862.756409,521.884766 
	C873.450562,521.884766 883.869507,521.884766 894.026428,521.884766 
	C894.026428,473.815796 894.026428,426.097382 894.026428,378.182678 
	C889.109009,378.182678 884.683716,378.182678 879.479858,378.182678 
	C879.479858,423.986511 879.479858,469.594452 879.500488,516.129395 
M550.278748,456.897858 
	C548.308838,457.212769 546.327820,457.470642 544.370789,457.851501 
	C528.192383,461.000122 517.949829,471.100250 515.182251,486.975586 
	C513.015076,499.407104 519.222839,518.152588 535.683838,522.376343 
	C550.615845,526.207825 564.246460,525.105591 576.250671,514.564941 
	C577.073792,513.842163 578.054077,513.298401 579.641724,512.201050 
	C580.260132,515.805908 580.775024,518.807678 581.289734,521.807861 
	C590.605896,521.807861 599.830750,521.807861 608.804199,521.807861 
	C608.804199,498.310303 608.678467,475.158905 608.840820,452.009521 
	C608.992432,430.399323 595.597656,418.370667 580.718872,414.780609 
	C566.963196,411.461548 553.257446,412.360352 539.864746,416.222748 
	C531.993530,418.492737 524.171936,421.568207 518.761353,428.620605 
	C522.363647,435.223389 525.885315,441.678375 529.418640,448.154724 
	C545.218933,438.017151 550.585815,436.231354 562.465149,437.055115 
	C573.863159,437.845459 579.376953,444.029877 578.943420,456.829803 
	C569.722473,456.829803 560.445435,456.829803 550.278748,456.897858 
M1116.598755,425.104828 
	C1111.403687,430.335144 1107.008423,435.993774 1104.766602,443.248260 
	C1099.099731,461.586121 1099.044556,479.984894 1104.979736,498.079559 
	C1113.470703,523.966125 1145.928589,532.849976 1166.829590,515.447998 
	C1167.904297,514.553345 1169.057373,513.752930 1170.889771,512.367310 
	C1170.889771,516.116516 1170.889771,519.005249 1170.889771,521.796204 
	C1175.935181,521.796204 1180.505127,521.796204 1184.836914,521.796204 
	C1184.836914,473.910492 1184.836914,426.378815 1184.836914,378.974579 
	C1179.947876,378.974579 1175.493164,378.974579 1170.514648,378.974579 
	C1170.514648,394.495758 1170.514648,409.790833 1170.514648,425.578766 
	C1154.886719,410.519409 1129.845825,413.327240 1116.598755,425.104828 
M989.347778,477.864563 
	C980.264404,493.471832 986.499390,513.462891 1003.030273,520.513855 
	C1019.756042,527.648010 1034.916138,525.222351 1048.315796,511.240784 
	C1048.540649,515.148926 1048.734009,518.510864 1048.930420,521.926392 
	C1053.832397,521.926392 1058.585205,521.926392 1063.141846,521.926392 
	C1063.141846,497.824310 1063.220581,474.033356 1063.114014,450.243256 
	C1063.043579,434.530060 1053.292603,421.407776 1039.019653,417.333954 
	C1028.830811,414.425812 1018.653198,414.703156 1008.579651,417.708038 
	C1001.110046,419.936157 994.111755,423.121582 989.165039,429.025208 
	C991.471313,432.825684 993.579712,436.300110 995.848816,440.039337 
	C996.946716,439.166809 997.869019,438.515747 998.698120,437.762146 
	C1006.865906,430.337708 1016.369080,426.893250 1027.429688,428.101257 
	C1034.676392,428.892700 1041.024170,431.491028 1044.663330,438.197083 
	C1048.577759,445.410370 1049.076660,453.275085 1048.373047,461.192261 
	C1037.058228,461.718506 1026.101074,461.819702 1015.232300,462.850952 
	C1004.800415,463.840729 995.772644,468.086029 989.347778,477.864563 
M1202.233887,498.499146 
	C1202.233887,506.271637 1202.233887,514.044128 1202.233887,521.821655 
	C1207.331787,521.821655 1212.219727,521.821655 1216.972900,521.821655 
	C1216.972900,487.195984 1216.972900,452.936218 1216.972900,418.521790 
	C1212.030518,418.521790 1207.306519,418.521790 1202.234253,418.521790 
	C1202.234253,445.008698 1202.234253,471.253784 1202.233887,498.499146 
M1076.499512,384.840790 
	C1073.975830,390.255493 1075.383423,394.707886 1080.204956,396.561188 
	C1085.246582,398.499084 1090.633179,396.332428 1091.931519,391.589203 
	C1093.036011,387.553467 1092.130371,383.715759 1088.278687,381.713654 
	C1084.062256,379.521912 1079.936646,380.188324 1076.499512,384.840790 
M1205.188477,381.563477 
	C1204.353394,382.355804 1203.377075,383.044617 1202.708130,383.958588 
	C1199.966431,387.703979 1200.315308,392.279510 1203.457520,395.146973 
	C1206.683838,398.091187 1211.751221,398.176514 1215.257446,395.345642 
	C1218.468018,392.753479 1219.270630,387.766022 1216.879517,384.190643 
	C1214.109375,380.048370 1210.099365,380.037750 1205.188477,381.563477 
z"/>
<path fill="#FBFBFB" opacity="1.000000" stroke="none" 
	d="
M281.816406,388.369263 
	C281.815460,385.449768 281.815460,382.989227 281.815460,380.097778 
	C286.543945,380.097778 290.993835,380.055023 295.442688,380.105377 
	C312.260315,380.295593 329.096710,380.082916 345.890564,380.825287 
	C371.985840,381.978821 388.602814,396.392029 397.447174,420.186310 
	C406.923798,445.681641 405.067719,470.556274 390.877350,493.903595 
	C381.557495,509.237549 367.066803,518.921692 349.656219,520.648499 
	C327.251617,522.870483 304.553162,522.129333 281.817383,522.668396 
	C281.817383,477.387207 281.817383,433.107727 281.816406,388.369263 
M343.317535,404.037689 
	C332.648499,403.556366 321.979431,403.075073 311.531860,402.603729 
	C311.531860,436.121948 311.531860,468.359680 311.531860,501.312988 
	C321.216827,500.788116 330.572449,500.869202 339.755310,499.649719 
	C354.665558,497.669678 363.685455,488.370819 367.993317,474.298126 
	C371.259338,463.628906 371.778961,452.601868 370.580902,441.642365 
	C368.700684,424.442871 363.035980,409.531372 343.317535,404.037689 
z"/>
<path fill="#FBFBFB" opacity="1.000000" stroke="none" 
	d="
M502.091797,428.959045 
	C504.062531,436.451019 507.230469,443.564331 507.460907,450.771606 
	C508.200684,473.905518 507.855988,497.074127 507.916992,520.229370 
	C507.918213,520.692261 507.764587,521.155457 507.637390,521.879272 
	C497.484894,521.879272 487.414307,521.879272 476.901154,521.879272 
	C476.901154,513.469604 476.906372,505.199432 476.900024,496.929260 
	C476.889191,482.767914 477.018158,468.604248 476.792511,454.446259 
	C476.683868,447.630768 475.502502,440.990112 468.057098,437.952850 
	C461.004303,435.075806 454.210571,435.358673 447.678040,439.692871 
	C440.699677,444.322845 439.415802,451.570007 439.289307,458.883759 
	C438.975403,477.037506 439.208130,495.200653 439.220612,513.360046 
	C439.222534,516.148682 439.220856,518.937317 439.220856,521.945496 
	C429.180237,521.945496 419.435730,521.945496 409.735657,521.945496 
	C409.735657,473.277832 409.735657,424.848480 409.735657,376.047760 
	C419.449890,376.047760 429.022827,376.047760 438.903625,376.047760 
	C438.903625,393.049072 438.903625,410.294861 438.903625,428.748901 
	C446.840088,416.238892 458.582855,413.453278 471.023224,413.010437 
	C483.965424,412.549713 494.724060,417.308563 502.091797,428.959045 
z"/>
<path fill="#FBFBFB" opacity="1.000000" stroke="none" 
	d="
M641.581177,499.484100 
	C630.645874,471.273621 619.871704,443.415222 608.961792,415.205811 
	C620.586243,415.205811 631.985657,415.205811 643.873596,415.205811 
	C650.982849,436.899841 658.165771,458.818695 665.849609,482.266083 
	C667.476257,477.240082 668.726685,473.630859 669.814148,469.973175 
	C674.911438,452.827118 679.905457,435.649841 685.138550,418.545593 
	C685.577759,417.110138 687.488098,415.135406 688.760986,415.100739 
	C699.070435,414.819916 709.390869,414.943115 720.345947,414.943115 
	C716.500366,425.608459 712.827393,435.825165 709.133423,446.034302 
	C698.779297,474.650787 688.391479,503.255127 678.068970,531.883057 
	C673.676331,544.065308 667.774780,555.206482 655.160950,560.553101 
	C639.331543,567.262634 623.882385,565.693359 609.088196,557.389038 
	C612.750000,548.711670 616.202820,540.529724 619.881348,531.812683 
	C621.879211,532.818848 624.126099,534.016052 626.427124,535.098083 
	C637.637939,540.369873 646.658997,533.239929 649.680420,521.659546 
	C650.034729,520.301758 648.952942,518.508118 648.372681,516.978760 
	C646.199524,511.250549 643.958069,505.548187 641.581177,499.484100 
M665.692688,483.687103 
	C665.915833,482.843170 666.139038,481.999207 666.362183,481.155273 
	C666.056213,481.094543 665.750244,481.033783 665.444275,480.973053 
	C665.356506,481.675964 665.268738,482.378876 665.692688,483.687103 
z"/>
<path fill="#F9F9F9" opacity="1.000000" stroke="none" 
	d="
M879.490173,515.665894 
	C879.479858,469.594452 879.479858,423.986511 879.479858,378.182678 
	C884.683716,378.182678 889.109009,378.182678 894.026428,378.182678 
	C894.026428,426.097382 894.026428,473.815796 894.026428,521.884766 
	C883.869507,521.884766 873.450562,521.884766 862.756409,521.884766 
	C857.912415,509.568970 852.819763,497.067566 848.135620,484.414886 
	C846.876343,481.013458 845.288086,479.985229 841.723511,480.018555 
	C821.748535,480.205383 801.770874,480.108551 781.633545,480.108551 
	C776.491516,494.114746 771.437073,507.882324 766.285645,521.914062 
	C761.060059,521.914062 755.517883,521.914062 749.581848,521.914062 
	C761.568237,491.052368 773.417969,460.600250 785.220825,430.130005 
	C791.374512,414.243652 797.541199,398.360718 803.466125,382.388824 
	C804.531982,379.515717 805.868774,378.520752 808.830017,378.671783 
	C813.317261,378.900604 817.824829,378.731567 822.654846,378.731567 
	C841.136475,425.369324 859.679565,472.161896 878.222595,518.954468 
	C878.550842,518.887695 878.879089,518.820862 879.207336,518.754028 
	C879.305054,517.879150 879.402771,517.004272 879.490173,515.665894 
M799.519531,467.836212 
	C813.504395,467.836212 827.489258,467.836212 841.910522,467.836212 
	C832.419128,443.220795 822.990173,418.767151 813.523804,394.216614 
	C804.472046,418.728729 795.444214,443.176270 786.338379,467.834900 
	C790.872803,467.834900 794.700989,467.834900 799.519531,467.836212 
z"/>
<path fill="#F9F9F9" opacity="1.000000" stroke="none" 
	d="
M550.723511,456.863831 
	C560.445435,456.829803 569.722473,456.829803 578.943420,456.829803 
	C579.376953,444.029877 573.863159,437.845459 562.465149,437.055115 
	C550.585815,436.231354 545.218933,438.017151 529.418640,448.154724 
	C525.885315,441.678375 522.363647,435.223389 518.761353,428.620605 
	C524.171936,421.568207 531.993530,418.492737 539.864746,416.222748 
	C553.257446,412.360352 566.963196,411.461548 580.718872,414.780609 
	C595.597656,418.370667 608.992432,430.399323 608.840820,452.009521 
	C608.678467,475.158905 608.804199,498.310303 608.804199,521.807861 
	C599.830750,521.807861 590.605896,521.807861 581.289734,521.807861 
	C580.775024,518.807678 580.260132,515.805908 579.641724,512.201050 
	C578.054077,513.298401 577.073792,513.842163 576.250671,514.564941 
	C564.246460,525.105591 550.615845,526.207825 535.683838,522.376343 
	C519.222839,518.152588 513.015076,499.407104 515.182251,486.975586 
	C517.949829,471.100250 528.192383,461.000122 544.370789,457.851501 
	C546.327820,457.470642 548.308838,457.212769 550.723511,456.863831 
M576.125122,493.426880 
	C577.350159,487.791351 578.575195,482.155792 580.072266,475.268707 
	C570.877563,476.016968 563.359314,475.985443 556.119873,477.390686 
	C548.157837,478.936218 543.733459,486.440369 545.197693,493.852692 
	C546.252380,499.192078 552.796692,503.367737 559.686584,502.637634 
	C566.102600,501.957794 572.005066,499.933929 576.125122,493.426880 
M579.412048,512.964050 
	C579.482910,512.731262 579.553833,512.498413 579.624695,512.265564 
	C579.405579,512.345093 579.186462,512.424622 579.412048,512.964050 
z"/>
<path fill="#F9F9F9" opacity="1.000000" stroke="none" 
	d="
M1116.880737,424.886566 
	C1129.845825,413.327240 1154.886719,410.519409 1170.514648,425.578766 
	C1170.514648,409.790833 1170.514648,394.495758 1170.514648,378.974579 
	C1175.493164,378.974579 1179.947876,378.974579 1184.836914,378.974579 
	C1184.836914,426.378815 1184.836914,473.910492 1184.836914,521.796204 
	C1180.505127,521.796204 1175.935181,521.796204 1170.889771,521.796204 
	C1170.889771,519.005249 1170.889771,516.116516 1170.889771,512.367310 
	C1169.057373,513.752930 1167.904297,514.553345 1166.829590,515.447998 
	C1145.928589,532.849976 1113.470703,523.966125 1104.979736,498.079559 
	C1099.044556,479.984894 1099.099731,461.586121 1104.766602,443.248260 
	C1107.008423,435.993774 1111.403687,430.335144 1116.880737,424.886566 
M1170.729370,476.494659 
	C1170.749390,467.333160 1170.733887,458.171417 1170.801025,449.010284 
	C1170.852051,442.040833 1168.138916,436.443848 1162.636841,432.221191 
	C1149.227783,421.930115 1127.905518,426.472900 1121.513550,441.976990 
	C1113.758301,460.787598 1113.891968,480.243866 1121.669678,499.166901 
	C1125.500977,508.488281 1137.381470,514.162720 1148.380127,512.680359 
	C1157.622437,511.434631 1169.019531,503.817963 1170.056885,492.917389 
	C1170.543823,487.800415 1170.521240,482.634918 1170.729370,476.494659 
M1170.838135,512.515015 
	C1170.622803,512.429138 1170.407471,512.343201 1170.192139,512.257324 
	C1170.255493,512.490601 1170.318848,512.723877 1170.838135,512.515015 
z"/>
<path fill="#F7F7F8" opacity="1.000000" stroke="none" 
	d="
M989.570740,477.582336 
	C995.772644,468.086029 1004.800415,463.840729 1015.232300,462.850952 
	C1026.101074,461.819702 1037.058228,461.718506 1048.373047,461.192261 
	C1049.076660,453.275085 1048.577759,445.410370 1044.663330,438.197083 
	C1041.024170,431.491028 1034.676392,428.892700 1027.429688,428.101257 
	C1016.369080,426.893250 1006.865906,430.337708 998.698120,437.762146 
	C997.869019,438.515747 996.946716,439.166809 995.848816,440.039337 
	C993.579712,436.300110 991.471313,432.825684 989.165039,429.025208 
	C994.111755,423.121582 1001.110046,419.936157 1008.579651,417.708038 
	C1018.653198,414.703156 1028.830811,414.425812 1039.019653,417.333954 
	C1053.292603,421.407776 1063.043579,434.530060 1063.114014,450.243256 
	C1063.220581,474.033356 1063.141846,497.824310 1063.141846,521.926392 
	C1058.585205,521.926392 1053.832397,521.926392 1048.930420,521.926392 
	C1048.734009,518.510864 1048.540649,515.148926 1048.315796,511.240784 
	C1034.916138,525.222351 1019.756042,527.648010 1003.030273,520.513855 
	C986.499390,513.462891 980.264404,493.471832 989.570740,477.582336 
M1040.094238,506.616150 
	C1042.316528,503.601227 1045.823853,500.848602 1046.503540,497.518799 
	C1048.105469,489.671082 1048.359375,481.548248 1049.191528,473.206848 
	C1041.516968,473.206848 1035.011719,472.837280 1028.570435,473.320984 
	C1023.182983,473.725586 1017.697754,474.586639 1012.567688,476.223206 
	C1005.878235,478.357269 1001.933777,483.451996 1001.141174,490.557281 
	C1000.275818,498.315033 1001.870911,505.133453 1009.050598,509.652557 
	C1017.325928,514.861328 1030.977417,513.735718 1040.094238,506.616150 
z"/>
<path fill="#F7F7F8" opacity="1.000000" stroke="none" 
	d="
M958.485168,430.345123 
	C944.330383,430.226410 930.175537,430.106049 916.020752,429.990997 
	C914.202393,429.976227 912.383728,429.988983 910.173828,429.988983 
	C910.173828,426.205353 910.173828,422.657532 910.173828,418.726227 
	C932.997620,418.726227 955.895813,418.726227 979.102112,418.726227 
	C979.534973,422.749542 979.398682,426.318024 976.822266,430.235168 
	C959.962463,455.868042 943.460449,481.736298 926.864258,507.542297 
	C926.366272,508.316620 926.118774,509.252075 925.528687,510.645752 
	C944.886536,510.645752 963.767334,510.645752 982.915771,510.645752 
	C982.915771,514.650818 982.915771,518.241943 982.915771,522.069458 
	C958.020081,522.069458 933.100281,522.069458 908.089172,522.069458 
	C907.070435,516.324585 908.043152,511.455261 911.308594,506.483185 
	C927.513672,481.809235 943.372986,456.908203 959.651733,431.571564 
	C959.461243,430.819000 958.973206,430.582062 958.485168,430.345123 
z"/>
<path fill="#F5F5F6" opacity="1.000000" stroke="none" 
	d="
M1202.234131,497.999023 
	C1202.234253,471.253784 1202.234253,445.008698 1202.234253,418.521790 
	C1207.306519,418.521790 1212.030518,418.521790 1216.972900,418.521790 
	C1216.972900,452.936218 1216.972900,487.195984 1216.972900,521.821655 
	C1212.219727,521.821655 1207.331787,521.821655 1202.233887,521.821655 
	C1202.233887,514.044128 1202.233887,506.271637 1202.234131,497.999023 
z"/>
<path fill="#FBFBFB" opacity="1.000000" stroke="none" 
	d="
M1076.671143,520.867554 
	C1076.718140,519.546265 1076.765137,518.224976 1076.908081,516.115479 
	C1076.920410,514.515442 1076.836670,513.703613 1076.753052,512.891846 
	C1076.782349,500.602051 1076.811646,488.312256 1076.934204,475.106659 
	C1076.941284,470.426300 1076.855103,466.661743 1076.768799,462.897186 
	C1076.791870,448.572418 1076.815063,434.247681 1077.314575,419.338257 
	C1082.073853,418.753632 1086.356812,418.753632 1090.590942,418.753632 
	C1090.881348,419.605103 1091.170410,420.056519 1091.170044,420.507660 
	C1091.137329,454.413544 1091.081665,488.319427 1091.027954,522.225342 
	C1086.658081,522.204346 1082.288330,522.183350 1077.410156,521.800049 
	C1076.825073,521.247681 1076.748169,521.057617 1076.671143,520.867554 
z"/>
<path fill="#F5F5F6" opacity="1.000000" stroke="none" 
	d="
M1076.650146,384.521484 
	C1079.936646,380.188324 1084.062256,379.521912 1088.278687,381.713654 
	C1092.130371,383.715759 1093.036011,387.553467 1091.931519,391.589203 
	C1090.633179,396.332428 1085.246582,398.499084 1080.204956,396.561188 
	C1075.383423,394.707886 1073.975830,390.255493 1076.650146,384.521484 
z"/>
<path fill="#F5F5F6" opacity="1.000000" stroke="none" 
	d="
M1205.509155,381.376648 
	C1210.099365,380.037750 1214.109375,380.048370 1216.879517,384.190643 
	C1219.270630,387.766022 1218.468018,392.753479 1215.257446,395.345642 
	C1211.751221,398.176514 1206.683838,398.091187 1203.457520,395.146973 
	C1200.315308,392.279510 1199.966431,387.703979 1202.708130,383.958588 
	C1203.377075,383.044617 1204.353394,382.355804 1205.509155,381.376648 
z"/>
<path fill="#555556" opacity="1.000000" stroke="none" 
	d="
M1091.285522,522.460266 
	C1091.081665,488.319427 1091.137329,454.413544 1091.170044,420.507660 
	C1091.170410,420.056519 1090.881348,419.605103 1090.590942,418.753632 
	C1086.356812,418.753632 1082.073853,418.753632 1077.326416,418.868713 
	C1077.168213,418.332092 1077.460083,417.120789 1077.782593,417.112579 
	C1082.566284,416.990875 1087.354248,417.028595 1092.527588,417.028595 
	C1092.668823,418.962067 1092.863892,420.394348 1092.864746,421.826721 
	C1092.884888,453.899139 1092.902222,485.971619 1092.829346,518.043884 
	C1092.825806,519.595276 1091.990967,521.144836 1091.285522,522.460266 
z"/>
<path fill="#555556" opacity="1.000000" stroke="none" 
	d="
M1076.445557,463.074036 
	C1076.855103,466.661743 1076.941284,470.426300 1076.902588,474.645294 
	C1076.559204,471.150116 1076.340698,467.200531 1076.445557,463.074036 
z"/>
<path fill="#555556" opacity="1.000000" stroke="none" 
	d="
M1076.488770,512.982178 
	C1076.836670,513.703613 1076.920410,514.515442 1076.875000,515.719116 
	C1076.572144,515.098267 1076.398438,514.085388 1076.488770,512.982178 
z"/>
<path fill="#555556" opacity="1.000000" stroke="none" 
	d="
M1076.432129,520.889160 
	C1076.748169,521.057617 1076.825073,521.247681 1076.947998,521.741821 
	C1076.630981,522.176697 1076.267944,522.307495 1075.905029,522.438232 
	C1076.000977,521.929016 1076.097046,521.419861 1076.432129,520.889160 
z"/>
<path fill="#050505" opacity="1.000000" stroke="none" 
	d="
M343.732178,404.092102 
	C363.035980,409.531372 368.700684,424.442871 370.580902,441.642365 
	C371.778961,452.601868 371.259338,463.628906 367.993317,474.298126 
	C363.685455,488.370819 354.665558,497.669678 339.755310,499.649719 
	C330.572449,500.869202 321.216827,500.788116 311.531860,501.312988 
	C311.531860,468.359680 311.531860,436.121948 311.531860,402.603729 
	C321.979431,403.075073 332.648499,403.556366 343.732178,404.092102 
z"/>
<path fill="#000000" opacity="1.000000" stroke="none" 
	d="
M665.436829,483.384460 
	C665.268738,482.378876 665.356506,481.675964 665.444275,480.973053 
	C665.750244,481.033783 666.056213,481.094543 666.362183,481.155273 
	C666.139038,481.999207 665.915833,482.843170 665.436829,483.384460 
z"/>
<path fill="#080808" opacity="1.000000" stroke="none" 
	d="
M799.024353,467.835571 
	C794.700989,467.834900 790.872803,467.834900 786.338379,467.834900 
	C795.444214,443.176270 804.472046,418.728729 813.523804,394.216614 
	C822.990173,418.767151 832.419128,443.220795 841.910522,467.836212 
	C827.489258,467.836212 813.504395,467.836212 799.024353,467.835571 
z"/>
<path fill="#0B0B0B" opacity="1.000000" stroke="none" 
	d="
M575.950256,493.759827 
	C572.005066,499.933929 566.102600,501.957794 559.686584,502.637634 
	C552.796692,503.367737 546.252380,499.192078 545.197693,493.852692 
	C543.733459,486.440369 548.157837,478.936218 556.119873,477.390686 
	C563.359314,475.985443 570.877563,476.016968 580.072266,475.268707 
	C578.575195,482.155792 577.350159,487.791351 575.950256,493.759827 
z"/>
<path fill="#000000" opacity="1.000000" stroke="none" 
	d="
M579.189697,512.734070 
	C579.186462,512.424622 579.405579,512.345093 579.624695,512.265625 
	C579.553833,512.498413 579.482910,512.731262 579.189697,512.734070 
z"/>
<path fill="#050505" opacity="1.000000" stroke="none" 
	d="
M1170.729492,476.993042 
	C1170.521240,482.634918 1170.543823,487.800415 1170.056885,492.917389 
	C1169.019531,503.817963 1157.622437,511.434631 1148.380127,512.680359 
	C1137.381470,514.162720 1125.500977,508.488281 1121.669678,499.166901 
	C1113.891968,480.243866 1113.758301,460.787598 1121.513550,441.976990 
	C1127.905518,426.472900 1149.227783,421.930115 1162.636841,432.221191 
	C1168.138916,436.443848 1170.852051,442.040833 1170.801025,449.010284 
	C1170.733887,458.171417 1170.749390,467.333160 1170.729492,476.993042 
z"/>
<path fill="#000000" opacity="1.000000" stroke="none" 
	d="
M1170.610107,512.736084 
	C1170.318848,512.723877 1170.255493,512.490601 1170.192139,512.257324 
	C1170.407471,512.343201 1170.622803,512.429138 1170.610107,512.736084 
z"/>
<path fill="#080808" opacity="1.000000" stroke="none" 
	d="
M1039.797729,506.830597 
	C1030.977417,513.735718 1017.325928,514.861328 1009.050598,509.652557 
	C1001.870911,505.133453 1000.275818,498.315033 1001.141174,490.557281 
	C1001.933777,483.451996 1005.878235,478.357269 1012.567688,476.223206 
	C1017.697754,474.586639 1023.182983,473.725586 1028.570435,473.320984 
	C1035.011719,472.837280 1041.516968,473.206848 1049.191528,473.206848 
	C1048.359375,481.548248 1048.105469,489.671082 1046.503540,497.518799 
	C1045.823853,500.848602 1042.316528,503.601227 1039.797729,506.830597 
z"/>
<path fill="#000000" opacity="1.000000" stroke="none" 
	d="
M958.705200,430.612000 
	C958.973206,430.582062 959.461243,430.819000 959.670959,431.222382 
	C959.236816,431.218842 959.081055,431.048859 958.705200,430.612000 
z"/>
</svg>